<?xml version="1.0" encoding="utf-8"?>
<!-- Generator: Adobe Illustrator 15.0.0, SVG Export Plug-In . SVG Version: 6.00 Build 0)  -->
<!DOCTYPE svg PUBLIC "-//W3C//DTD SVG 1.1//EN" "http://www.w3.org/Graphics/SVG/1.1/DTD/svg11.dtd">
<svg version="1.1" id="Layer_1" xmlns="http://www.w3.org/2000/svg" xmlns:xlink="http://www.w3.org/1999/xlink" x="0px" y="0px"
	 width="70.167px" height="70.199px" viewBox="0 0 70.167 70.199" enable-background="new 0 0 70.167 70.199" xml:space="preserve">
<path fill="#555555" d="M70.167,17.573V30.87h-2.924v-8.771h-5.848v8.771h-2.923v-8.771h-5.848v14.619h-2.924V22.099h-5.847v8.771
	h-2.924v-8.771h-5.848v8.771H32.16v-8.771h-5.847v14.619h-2.924V22.099h-5.847v8.771h-2.924v-8.771L3.792,22.094v43.583l66.3,0.005
	l0.075,4.517H0V17.573H70.167z M29.236,58.504V40.963h-3.334c0,2.66-2.367,3.129-4.974,3.248v2.924h4.351v11.369H29.236z
	 M44.083,55.627v2.797h11.466v-3.816H50.21c2.403-2.162,5.036-4.757,5.036-8.135c0-3.352-2.232-5.51-5.676-5.51
	c-1.879,0-3.767,0.596-5.359,1.918l1.239,3.357c1.031-0.816,2.093-1.535,3.415-1.535c1.422,0,2.204,0.748,2.204,2.098
	C51.039,49.065,48.554,51.263,44.083,55.627z"/>
</svg>
