<?xml version="1.0" encoding="utf-8"?>
<!-- Generator: Adobe Illustrator 15.0.0, SVG Export Plug-In . SVG Version: 6.00 Build 0)  -->
<!DOCTYPE svg PUBLIC "-//W3C//DTD SVG 1.1//EN" "http://www.w3.org/Graphics/SVG/1.1/DTD/svg11.dtd">
<svg version="1.1" id="Layer_1" xmlns="http://www.w3.org/2000/svg" xmlns:xlink="http://www.w3.org/1999/xlink" x="0px" y="0px"
	 width="70.167px" height="70.199px" viewBox="0 0 70.167 70.199" enable-background="new 0 0 70.167 70.199" xml:space="preserve">
<g>
	<path fill="#555555" stroke="#555555" stroke-width="1.1339" stroke-miterlimit="10" d="M56.887,69.531H14.691
		c-0.844,0-1.407-0.564-1.407-1.406V45.619c0-0.844,0.563-1.406,1.407-1.406s1.406,0.562,1.406,1.406v21.1h39.384v-21.1
		c0-0.844,0.563-1.406,1.406-1.406c0.844,0,1.407,0.562,1.407,1.406v22.506C58.294,68.967,57.731,69.531,56.887,69.531z"/>
	<path fill="#555555" stroke="#555555" stroke-width="1.1339" stroke-miterlimit="10" d="M62.514,46.322
		c-0.421,0-0.703-0.141-0.984-0.422L35.79,19.317L10.189,46.041c-0.562,0.562-1.546,0.562-2.109,0c-0.562-0.562-0.562-1.547,0-2.111
		l26.725-27.848c0.563-0.563,1.549-0.563,2.109,0l26.726,27.848c0.563,0.564,0.563,1.549,0,2.111
		C63.217,46.322,62.795,46.322,62.514,46.322z"/>
	<path fill="#555555" stroke="#555555" stroke-width="0.5669" stroke-miterlimit="10" d="M47.042,41.82
		C47.042,41.82,46.903,41.82,47.042,41.82c0-0.139-0.14-0.139-0.14-0.281c0-0.141-0.143-0.141-0.143-0.141h-7.314
		c-0.422,0-0.704,0.283-0.704,0.703c0,0.424,0.282,0.705,0.704,0.705h5.345L25.943,61.511v-5.344c0-0.422-0.281-0.703-0.703-0.703
		c-0.421,0-0.703,0.281-0.703,0.703v7.316c0,0,0,0.139,0.141,0.139c0.141,0,0.141,0.143,0.141,0.143h7.314
		c0.422,0,0.704-0.281,0.704-0.705c0-0.422-0.142-0.562-0.563-0.562h-5.345l18.708-18.707v5.346c0,0.42,0.28,0.703,0.703,0.703
		c0.421,0,0.703-0.283,0.703-0.703V41.82z"/>
</g>
</svg>
